#!OML:ASF H:\Terrain\Walking\May29\JustinRory\Justin.ASF
:FULLY-SPECIFIED
:DEGREES
812
root 9.75283001996008 17.71020998003992 7.661813572854291 -121.19517954091815 -4.062022035928145 -121.2756105788423 
lowerback 2.5457342514970063 2.7279756586826345 2.7153064670658686 
upperback 0.06931349197604791 3.7693314371257483 1.9167875648702595 
thorax -1.2411466347305393 1.8962964371257485 0.3467030419161681 
lowerneck -17.616666866267465 -2.7870994211576847 -10.87902135728543 
upperneck 23.065306786427143 -1.6644531976047907 1.670235137724551 
head 10.472670259481038 -1.7196650698602796 2.1415041716566865 
rclavicle 8.294493512974052e-14 -1.2617556487025954e-15 
rhumerus -23.150369461077844 -8.47604375249501 -80.07699161676648 
rradius 34.39538502994012 
rwrist -14.639444391217564 
rhand -13.084240918163673 -88.93614930139722 
rfingers 7.12502 
rthumb 13.01199860279441 -7.1329664471057885 
lclavicle 8.294493512974052e-14 -1.2617556487025954e-15 
lhumerus -34.68077185628742 12.377376447105789 79.51685169660679 
lradius 33.70957704590818 
lwrist -8.261777325349302 
lhand 2.1780269261477048 38.442448103792415 
lfingers 7.12502 
lthumb 27.67442974051896 66.4222487025948 
rfemur 0.9379337325349297 -0.9095305149700601 24.032776646706584 
rtibia 29.743142115768464 
rfoot -9.795656646706586 -1.3046109381237532 
rtoes -3.439272734530938 
lfemur -22.19644550898203 2.642697065868264 -14.24126746506986 
ltibia 28.825069461077845 
lfoot -6.3348591497006 5.650645788423155 
ltoes -5.634892135728544 
813
root 9.74956363273453 17.71111636726547 7.714870259481037 -121.55423644710577 -3.9907605389221565 -121.61744534930139 
lowerback 2.54185377245509 2.733233880239521 2.724619005988024 
upperback 0.06881903964071859 3.7766715568862272 1.9158168063872256 
thorax -1.2389725209580842 1.8999695568862274 0.3403886287425153 
lowerneck -17.625469660678643 -2.782144650698603 -10.875287025948104 
upperneck 23.06623512974052 -1.6570769640718566 1.6645850658682637 
head 10.473987225548901 -1.7170527145708583 2.139759241516966 
rclavicle 8.314839361277445e-14 -1.2343780638722568e-15 
rhumerus -23.152141916167665 -8.470712954091816 -80.06387425149701 
rradius 34.4251754491018 
rwrist -14.682511201596805 
rhand -13.082947105788422 -88.21167285429144 
rfingers 7.12502 
rthumb 13.013245708582835 -7.1269733732534934 
lclavicle 8.314839361277445e-14 -1.2343780638722568e-15 
lhumerus -34.70217784431138 12.363613373253493 79.52570878243513 
lradius 33.68662235528942 
lwrist -8.267543213572853 
lhand 2.173510558882236 38.43825489021956 
lfingers 7.12502 
lthumb 27.670112774451095 66.41876387225548 
rfemur 0.9853893213572853 -0.9018887245508984 24.0468497005988 
rtibia 29.73826506986028 
rfoot -9.782809700598804 -1.2758907385229552 
rtoes -3.4451576846307383 
lfemur -22.230182634730536 2.6343559880239527 -14.238878642714571 
ltibia 28.810041916167663 
lfoot -6.290290245508984 5.624133493013973 
ltoes -5.620318702594811 
814
root 9.746297245508982 17.712022754491016 7.767926946107783 -121.9132933532934 -3.9194990419161684 -121.95928011976046 
lowerback 2.537973293413174 2.7384921017964072 2.73393154491018 
upperback 0.06832458730538923 3.7840116766467062 1.9148460479041916 
thorax -1.236798407185629 1.9036426766467065 0.3340742155688625 
lowerneck -17.63427245508982 -2.777189880239521 -10.871552694610779 
upperneck 23.067163473053892 -1.6497007305389224 1.6589349940119762 
head 10.475304191616766 -1.7144403592814372 2.1380143113772454 
rclavicle 8.335185209580838e-14 -1.2070004790419166e-15 
rhumerus -23.153914371257486 -8.465382155688623 -80.05075688622755 
rradius 34.45496586826347 
rwrist -14.725578011976047 
rhand -13.081653293413174 -87.48719640718565 
rfingers 7.12502 
rthumb 13.014492814371257 -7.1209802994011975 
lclavicle 8.335185209580838e-14 -1.2070004790419166e-15 
lhumerus -34.72358383233533 12.349850299401197 79.53456586826347 
lradius 33.663667664670655 
lwrist -8.273309101796407 
lhand 2.1689941916167665 38.43406167664671 
lfingers 7.12502 
lthumb 27.665795808383233 66.41527904191616 
rfemur 1.0328449101796409 -0.8942469341317367 24.060922754491017 
rtibia 29.733388023952095 
rfoot -9.769962754491019 -1.2471705389221572 
rtoes -3.451042634730539 
lfemur -22.263919760479038 2.626014910179641 -14.236489820359282 
ltibia 28.795014371257484 
lfoot -6.245721341317367 5.597621197604791 
ltoes -5.605745269461078 
815
root 9.743030858283433 17.712929141716568 7.82098363273453 -122.27235025948102 -3.84823754491018 -122.30111489021955 
lowerback 2.5340928143712578 2.7437503233532934 2.7432440838323355 
upperback 0.06783013497005991 3.7913517964071857 1.9138752894211577 
thorax -1.234624293413174 1.9073157964071854 0.32775980239520974 
lowerneck -17.643075249501 -2.772235109780439 -10.867818363273454 
upperneck 23.068091816367264 -1.6423244970059883 1.653284922155689 
head 10.476621157684631 -1.7118280039920162 2.136269381237525 
rclavicle 8.355531057884231e-14 -1.179622894211578e-15 
rhumerus -23.155686826347306 -8.46005135728543 -80.0376395209581 
rradius 34.48475628742515 
rwrist -14.768644822355288 
rhand -13.080359481037924 -86.76271996007986 
rfingers 7.12502 
rthumb 13.01573992015968 -7.114987225548902 
lclavicle 8.355531057884231e-14 -1.179622894211578e-15 
lhumerus -34.74498982035928 12.336087225548901 79.54342295409182 
lradius 33.640712974051894 
lwrist -8.27907499001996 
lhand 2.164477824351297 38.42986846307385 
lfingers 7.12502 
lthumb 27.66147884231537 66.41179421157685 
rfemur 1.0803004990019964 -0.886605143712575 24.074995808383232 
rtibia 29.728510978043914 
rfoot -9.757115808383233 -1.2184503393213575 
rtoes -3.456927584830339 
lfemur -22.297656886227543 2.61767383233533 -14.234100998003992 
ltibia 28.779986826347304 
lfoot -6.201152437125751 5.5711089021956095 
ltoes -5.591171836327346 
816
root 9.739764471057883 17.713835528942116 7.874040319361276 -122.63140716566865 -3.776976047904192 -122.64294966067862 
lowerback 2.5302123353293418 2.7490085449101795 2.752556622754491 
upperback 0.06733568263473055 3.7986919161676647 1.9129045309381238 
thorax -1.2324501796407188 1.9109889161676645 0.32144538922155697 
lowerneck -17.651878043912177 -2.767280339321357 -10.864084031936128 
upperneck 23.069020159680637 -1.634948263473054 1.6476348502994014 
head 10.477938123752494 -1.7092156487025951 2.1345244510978043 
rclavicle 8.375876906187624e-14 -1.1522453093812378e-15 
rhumerus -23.157459281437127 -8.454720558882237 -80.02452215568863 
rradius 34.51454670658683 
rwrist -14.81171163273453 
rhand -13.079065668662674 -86.03824351297408 
rfingers 7.12502 
rthumb 13.016987025948104 -7.108994151696606 
lclavicle 8.375876906187624e-14 -1.1522453093812378e-15 
lhumerus -34.76639580838323 12.322324151696606 79.55228003992016 
lradius 33.61775828343313 
lwrist -8.284840878243513 
lhand 2.1599614570858288 38.425675249501 
lfingers 7.12502 
lthumb 27.657161876247503 66.40830938123752 
rfemur 1.127756087824352 -0.8789633532934134 24.089068862275447 
rtibia 29.72363393213573 
rfoot -9.744268862275451 -1.1897301397205595 
rtoes -3.4628125349301397 
lfemur -22.331394011976045 2.6093327544910183 -14.231712175648703 
ltibia 28.764959281437125 
lfoot -6.156583532934134 5.544596606786428 
ltoes -5.576598403193613 
817
root 9.736498083832334 17.714741916167664 7.927097005988022 -122.99046407185627 -3.705714550898204 -122.98478443113771 
lowerback 2.5263318562874253 2.754266766467066 2.761869161676647 
upperback 0.0668412302994012 3.8060320359281437 1.9119337724550898 
thorax -1.2302760658682637 1.9146620359281437 0.3151309760479042 
lowerneck -17.660680838323355 -2.762325568862275 -10.860349700598803 
upperneck 23.069948502994013 -1.62757202994012 1.6419847784431139 
head 10.47925508982036 -1.7066032934131738 2.132779520958084 
rclavicle 8.396222754491018e-14 -1.1248677245508992e-15 
rhumerus -23.159231736526944 -8.449389760479042 -80.01140479041916 
rradius 34.544337125748505 
rwrist -14.854778443113771 
rhand -13.077771856287425 -85.31376706586829 
rfingers 7.12502 
rthumb 13.018234131736527 -7.103001077844311 
lclavicle 8.396222754491018e-14 -1.1248677245508992e-15 
lhumerus -34.78780179640719 12.308561077844312 79.5611371257485 
lradius 33.59480359281437 
lwrist -8.290606766467066 
lhand 2.1554450898203594 38.42148203592814 
lfingers 7.12502 
lthumb 27.65284491017964 66.4048245508982 
rfemur 1.1752116766467076 -0.8713215628742517 24.10314191616766 
rtibia 29.718756886227546 
rfoot -9.731421916167665 -1.1610099401197616 
rtoes -3.46869748502994 
lfemur -22.365131137724546 2.600991676646707 -14.229323353293413 
ltibia 28.749931736526946 
lfoot -6.112014628742516 5.518084311377246 
ltoes -5.5620249700598805 
818
root 9.733231696606786 17.715648303393213 7.980153692614769 -123.3495209780439 -3.6344530538922157 -123.3266192015968 
lowerback 2.5224513772455093 2.7595249880239523 2.7711817005988024 
upperback 0.06634677796407187 3.8133721556886226 1.910963013972056 
thorax -1.2281019520958085 1.9183351556886226 0.30881656287425185 
lowerneck -17.669483632734533 -2.7573707984031937 -10.856615369261476 
upperneck 23.070876846307385 -1.6201957964071858 1.6363347065868266 
head 10.480572055888224 -1.7039909381237526 2.131034590818363 
rclavicle 8.416568602794411e-14 -1.097490139720559e-15 
rhumerus -23.161004191616765 -8.444058962075848 -79.9982874251497 
rradius 34.57412754491018 
rwrist -14.897845253493013 
rhand -13.076478043912175 -84.5892906187625 
rfingers 7.12502 
rthumb 13.01948123752495 -7.097008003992016 
lclavicle 8.416568602794411e-14 -1.097490139720559e-15 
lhumerus -34.80920778443114 12.294798003992016 79.56999421157684 
lradius 33.57184890219561 
lwrist -8.296372654690618 
lhand 2.15092872255489 38.41728882235529 
lfingers 7.12502 
lthumb 27.648527944111777 66.40133972055888 
rfemur 1.2226672654690596 -0.86367977245509 24.117214970059877 
rtibia 29.71387984031936 
rfoot -9.71857497005988 -1.1322897405189636 
rtoes -3.4745824351297405 
lfemur -22.398868263473048 2.5926505988023956 -14.226934530938124 
ltibia 28.734904191616767 
lfoot -6.0674457245509 5.491572015968064 
ltoes -5.547451536926149 
